<svg xmlns="http://www.w3.org/2000/svg" xmlns:xlink="http://www.w3.org/1999/xlink" width="500" zoomAndPan="magnify" viewBox="0 0 375 374.999991" height="500" preserveAspectRatio="xMidYMid meet" version="1.0"><defs><clipPath id="0fee2c1be2"><path d="M 118.710938 135.375 L 132.460938 135.375 L 132.460938 239.625 L 118.710938 239.625 Z M 118.710938 135.375 " clip-rule="nonzero"/></clipPath><clipPath id="0b1c4e1062"><path d="M 0.710938 0.375 L 14.460938 0.375 L 14.460938 104.625 L 0.710938 104.625 Z M 0.710938 0.375 " clip-rule="nonzero"/></clipPath><clipPath id="80485887d6"><rect x="0" width="15" y="0" height="105"/></clipPath><clipPath id="0a06afe0c9"><path d="M 138.535156 135.375 L 156.921875 135.375 L 156.921875 239.625 L 138.535156 239.625 Z M 138.535156 135.375 " clip-rule="nonzero"/></clipPath><clipPath id="dfc5ebcdd0"><path d="M 0.535156 0.375 L 18.921875 0.375 L 18.921875 104.625 L 0.535156 104.625 Z M 0.535156 0.375 " clip-rule="nonzero"/></clipPath><clipPath id="f177e7f670"><rect x="0" width="19" y="0" height="105"/></clipPath><clipPath id="8c52b044d6"><path d="M 163.179688 135.375 L 193.933594 135.375 L 193.933594 239.625 L 163.179688 239.625 Z M 163.179688 135.375 " clip-rule="nonzero"/></clipPath><clipPath id="7ef423410e"><path d="M 0.179688 0.375 L 30.933594 0.375 L 30.933594 104.625 L 0.179688 104.625 Z M 0.179688 0.375 " clip-rule="nonzero"/></clipPath><clipPath id="013f121b38"><rect x="0" width="31" y="0" height="105"/></clipPath><clipPath id="ffe0005ade"><path d="M 200.1875 135.375 L 256.289062 135.375 L 256.289062 239.625 L 200.1875 239.625 Z M 200.1875 135.375 " clip-rule="nonzero"/></clipPath><clipPath id="de09f98320"><path d="M 0.1875 0.375 L 56.289062 0.375 L 56.289062 104.625 L 0.1875 104.625 Z M 0.1875 0.375 " clip-rule="nonzero"/></clipPath><clipPath id="bcb25eed69"><rect x="0" width="57" y="0" height="105"/></clipPath></defs><g clip-path="url(#0fee2c1be2)"><g transform="matrix(1, 0, 0, 1, 118, 135)"><g clip-path="url(#80485887d6)"><g clip-path="url(#0b1c4e1062)"><path fill="#38b6ff" d="M 0.710938 0.375 L 14.460938 0.375 L 14.460938 104.613281 L 0.710938 104.613281 Z M 0.710938 0.375 " fill-opacity="1" fill-rule="nonzero"/></g></g></g></g><g clip-path="url(#0a06afe0c9)"><g transform="matrix(1, 0, 0, 1, 138, 135)"><g clip-path="url(#f177e7f670)"><g clip-path="url(#dfc5ebcdd0)"><path fill="#00bf63" d="M 0.535156 0.375 L 18.921875 0.375 L 18.921875 104.605469 L 0.535156 104.605469 Z M 0.535156 0.375 " fill-opacity="1" fill-rule="nonzero"/></g></g></g></g><g clip-path="url(#8c52b044d6)"><g transform="matrix(1, 0, 0, 1, 163, 135)"><g clip-path="url(#013f121b38)"><g clip-path="url(#7ef423410e)"><path fill="#ff3131" d="M 0.179688 0.375 L 30.933594 0.375 L 30.933594 104.65625 L 0.179688 104.65625 Z M 0.179688 0.375 " fill-opacity="1" fill-rule="nonzero"/></g></g></g></g><g clip-path="url(#ffe0005ade)"><g transform="matrix(1, 0, 0, 1, 200, 135)"><g clip-path="url(#bcb25eed69)"><g clip-path="url(#de09f98320)"><path fill="#ffcc00" d="M 0.1875 0.375 L 56.289062 0.375 L 56.289062 104.683594 L 0.1875 104.683594 Z M 0.1875 0.375 " fill-opacity="1" fill-rule="nonzero"/></g></g></g></g></svg>